<?xml version="1.0" encoding="UTF-8"?>
<svg width="331px" height="44px" viewBox="0 0 331 44" version="1.1" xmlns="http://www.w3.org/2000/svg" xmlns:xlink="http://www.w3.org/1999/xlink">
    <title>画板</title>
    <g id="画板" stroke="none" stroke-width="1" fill="none" fill-rule="evenodd">
        <rect id="矩形" fill="#FFFFFF" opacity="0" x="0" y="0" width="331" height="44"></rect>
        <g id="资源-1" fill="#040000" fill-rule="nonzero">
            <g id="编组">
                <polygon id="路径" points="19.327491 0.819047889 25.3101004 0.819047889 25.3101004 34.4978081 19.327491 34.4978081 19.327491 20.4639726 5.99481876 20.4639726 5.99481876 34.4978081 0 34.4978081 0 0.819047889 5.99481876 0.819047889 5.99481876 14.4739209 19.327491 14.4739209"></polygon>
                <polygon id="路径" points="95.3310486 21.8331273 80.789645 0.819047889 76.0035575 0.819047889 76.0035575 34.4978081 81.9983763 34.4978081 81.9983763 13.3737073 96.6130363 34.4978081 101.325867 34.4978081 101.325867 0.819047889 95.3310486 0.819047889"></polygon>
                <path d="M126.672596,0.354508912 C119.68881,0.349568092 113.389946,4.55792714 110.713944,11.0167119 C108.037941,17.4754967 109.511969,24.9123361 114.448506,29.8585118 C119.385043,34.8046874 126.811597,36.2858101 133.264249,33.6110489 C139.716901,30.9362877 143.924488,24.6325668 143.924488,17.6400911 C143.924488,8.09830204 136.202527,0.361261348 126.672596,0.354508912 Z M126.672596,28.9112278 C120.450351,28.8976649 115.416524,23.8375127 115.427738,17.6075231 C115.43899,11.3775335 120.491032,6.33561215 126.713285,6.34459124 C132.935538,6.35359434 137.973024,11.410095 137.966304,17.6400911 C137.966304,20.6357316 136.775277,23.5081459 134.656237,25.6229402 C132.537198,27.7377346 129.664499,28.9209152 126.672596,28.9112278 Z" id="形状"></path>
                <path d="M168.050276,22.2243144 C173.082249,20.4953891 176.154488,15.4055833 175.343737,10.1411723 C174.532986,4.87676139 170.072139,0.949984507 164.753736,0.819047889 L152.019325,0.819047889 L152.019325,34.4978081 L158.001934,34.4978081 L158.001934,19.5593526 L170.492157,34.5467065 L178.25734,34.5467065 L168.050276,22.2243144 Z M158.001934,16.7354711 L158.001934,6.82132421 L164.680479,6.82132421 C167.319314,6.95257157 169.391562,9.13302214 169.391562,11.7783976 C169.391562,14.4237731 167.319314,16.6042237 164.680479,16.7354711 L158.001934,16.7354711 Z" id="形状"></path>
                <path d="M50.656829,0.354513266 C41.1221291,0.354513266 33.3927277,8.09353007 33.3927277,17.6400911 C33.3927277,27.1866521 41.1221291,34.925669 50.656829,34.925669 C60.1915288,34.925669 67.9209302,27.1866521 67.9209302,17.6400911 C67.9209302,13.0556708 66.1020391,8.65901647 62.864392,5.4173418 C59.626745,2.17566713 55.2355533,0.354513266 50.656829,0.354513266 Z M50.656829,28.9111747 C46.0977192,28.9111747 41.9877595,26.1607526 40.2442065,21.9429708 C38.5006535,17.725189 39.4670454,12.8710822 42.6925697,9.64504428 C45.918094,6.41900639 50.7672145,5.45667479 54.9778634,7.20696787 C59.1885123,8.95726095 61.9310509,13.0753124 61.9261181,17.6400911 C61.9261181,20.6314858 60.7384277,23.5001825 58.6246756,25.6142712 C56.5109235,27.7283599 53.6445052,28.9144125 50.656829,28.9111747 Z" id="形状"></path>
            </g>
            <g id="编组" transform="translate(261.281306, 0.000000)">
                <polygon id="路径" points="0.586051528 34.4978081 0.586051528 0.855721675 4.00468544 0.855721675 4.00468544 31.4172101 19.657145 31.4172101 19.657145 34.4611343"></polygon>
                <path d="M25.0781216,5.99008935 C24.475737,5.99356638 23.8980259,5.75071418 23.4786893,5.31769898 C23.0253256,4.89096221 22.7763978,4.29012186 22.7949626,3.66737861 C22.786848,3.0573087 23.0349146,2.4718528 23.4786893,2.05373202 C24.359896,1.17565977 25.7841379,1.17565977 26.6653445,2.05373202 C27.1091193,2.4718528 27.3571859,3.0573087 27.3490713,3.66737861 C27.3571859,4.27744852 27.1091193,4.86290441 26.6653445,5.2810252 C26.2560497,5.72569322 25.682024,5.98211559 25.0781216,5.99008935 L25.0781216,5.99008935 Z M23.4542705,34.4978081 L23.4542705,12.2245954 L26.6897633,12.2245954 L26.6897633,34.4978081 L23.4542705,34.4978081 Z" id="形状"></path>
                <path d="M40.2910426,34.7789738 C38.8507218,34.8063274 37.4450086,34.3357343 36.3107759,33.4464929 C35.1753011,32.566322 34.601459,31.0015738 34.601459,28.8378205 L34.601459,14.9629047 L29.9985126,14.9629047 L29.9985126,12.2245954 L34.601459,12.2245954 L34.601459,5.99005173 L37.8491612,5.99005173 L37.8491612,12.2245954 L44.1125869,12.2245954 L44.1125869,14.9262309 L37.8491612,14.9262309 L37.8491612,27.945425 C37.723814,29.0824988 38.0287655,30.2253089 38.7038197,31.148269 C39.3625778,31.7648705 40.245573,32.0831442 41.145701,32.0284399 C42.1235211,32.0096874 43.0840902,31.7671556 43.9538646,31.3194133 L44.0881681,34.1188457 C43.2702164,34.4541034 42.4052754,34.6602979 41.5241926,34.7300754 L40.2910426,34.7789738 Z" id="路径"></path>
                <path d="M57.8237508,35.0723641 C54.745526,35.1776857 51.7644605,33.9846631 49.60682,31.7839479 C47.4285099,29.5407955 46.2673489,26.4994547 46.395746,23.3734263 C46.3053468,20.2778363 47.4574802,17.2750406 49.5946106,15.0362523 C51.6651189,12.8345009 54.5722004,11.616896 57.591772,11.6867132 C60.522322,11.5271257 63.376365,12.6567681 65.4057924,14.7795358 C67.3321858,16.9612452 68.3426053,19.8035741 68.2261654,22.7132982 C68.2261654,23.3489771 68.2261654,23.8501856 68.2261654,24.229148 L49.7044952,24.229148 C49.6684732,26.4770537 50.6137235,28.6288338 52.2928895,30.121403 C54.9627781,32.5815214 58.9202741,33.0173875 62.0604149,31.1971674 C63.2316368,30.5317214 64.224478,29.5921725 64.9540444,28.458858 L67.3959257,30.3658949 C66.2222013,31.9542598 64.6631359,33.2165279 62.8662358,34.0332735 C61.2726697,34.7168126 59.5573926,35.0702749 57.8237508,35.0723641 Z M49.7533329,21.6253092 L64.8929973,21.6253092 C64.8798678,19.6812238 64.1442925,17.8116714 62.8296076,16.3809578 C61.42754,14.9887981 59.502392,14.2559765 57.530725,14.3638996 C55.5354215,14.3195221 53.6084106,15.0921684 52.1952142,16.5032037 C50.7533065,17.8475926 49.8796443,19.6933131 49.7533329,21.661983 L49.7533329,21.6253092 Z" id="形状"></path>
            </g>
            <g id="编组" transform="translate(195.350509, 0.000000)">
                <path d="M10.1215983,35.3535298 C7.97414221,35.4138678 5.85477035,34.8536576 4.01689485,33.7398832 C2.29155866,32.637136 0.911959331,31.0693852 0.0366282205,29.2167829 L3.12560815,27.8476282 C3.69146578,29.2043846 4.64775069,30.361865 5.87272469,31.1727182 C7.06291606,31.9755676 8.46673937,32.4014978 9.90182894,32.3951777 C12.0144647,32.4532855 14.0551683,31.624465 15.5303655,30.1091784 C17.0302359,28.6130469 17.8549364,26.5686015 17.8135246,24.4491907 C17.9130059,22.244015 17.0535366,20.1038157 15.4571091,18.581385 C13.8293323,17.0797139 11.6740651,16.2842177 9.4622903,16.3687332 C8.12363788,16.3476759 6.79083818,16.5501168 5.51865189,16.9677384 C4.47396658,17.2923668 3.45726111,17.7011901 2.47850959,18.1901979 L2.80816357,0.855721675 L19.9013331,0.855721675 L19.9013331,3.89964592 L5.94598113,3.89964592 L5.70179299,14.3027766 C7.19737422,13.7843946 8.77100554,13.5279996 10.353577,13.5448517 C13.2628861,13.4325646 16.0955126,14.493919 18.216435,16.4909791 C20.2628446,18.4787775 21.3720065,21.2418053 21.2687867,24.0946775 C21.3013162,26.1128937 20.8224507,28.106443 19.8769143,29.8891357 C18.967333,31.5720539 17.5999337,32.9623478 15.9332759,33.8988029 C14.1577579,34.8875719 12.1529567,35.3893957 10.1215983,35.3535298 L10.1215983,35.3535298 Z" id="路径"></path>
                <path d="M38.6916103,35.3535298 C35.1152609,35.5451257 31.7812623,33.5422381 30.2671195,30.2925473 C28.425104,26.3670735 27.5380855,22.0605201 27.6787253,17.7256633 C27.5357405,13.3669922 28.4225961,9.03609896 30.2671195,5.08543167 C31.6571599,2.51595257 34.1294131,0.710246239 36.9975894,0.169570999 C39.8657657,-0.37110424 42.8245934,0.410797918 45.0527112,2.29822393 C46.7824237,4.11675827 47.9926067,6.36703684 48.556811,8.81393326 C49.3378306,11.7193303 49.7238723,14.7169316 49.7044952,17.7256633 C49.8440714,22.0630586 48.9483486,26.3712292 47.0916822,30.2925473 C45.5757477,33.5289853 42.2575825,35.5281558 38.6916103,35.3535298 Z M38.6916103,32.4074023 C41.3776798,32.4074023 43.306766,30.9567503 44.4788691,28.0554464 C45.7215171,24.757045 46.3184278,21.2499826 46.2370237,17.7256633 C46.3141853,14.1817512 45.7175349,10.6554753 44.4788691,7.33475722 C43.306766,4.40085433 41.3776798,2.93390289 38.6916103,2.93390289 C36.0055408,2.93390289 34.0683149,4.40085433 32.8799326,7.33475722 C31.6471305,10.6776583 31.0588203,14.2243547 31.1461968,17.7867863 C31.0624377,21.3091305 31.650877,24.8151145 32.8799326,28.1165693 C34.0276168,30.9771247 35.9648427,32.4074023 38.6916103,32.4074023 Z" id="形状"></path>
            </g>
        </g>
    </g>
</svg>