<?xml version="1.0" encoding="UTF-8"?>
<svg width="531px" height="44px" viewBox="0 0 531 44" version="1.1" xmlns="http://www.w3.org/2000/svg" xmlns:xlink="http://www.w3.org/1999/xlink">
    <title>画板</title>
    <defs>
        <polygon id="path-1" points="0 42.4136054 384.835973 42.4136054 384.835973 0.0547156463 0 0.0547156463"></polygon>
    </defs>
    <g id="画板" stroke="none" stroke-width="1" fill="none" fill-rule="evenodd">
        <rect id="矩形" fill-opacity="0" fill="#FFFFFF" x="0" y="0" width="531" height="44"></rect>
        <g id="编组">
            <polygon id="Fill-1" fill="#000000" points="177.85255 32.420948 177.85255 2.3102215 182.530558 2.3102215 192.737361 27.2332582 192.822966 26.9777589 202.858558 2.3102215 207.537883 2.3102215 207.537883 32.420948 204.474525 32.420948 204.474525 6.26650993 204.390237 6.26650993 193.502541 32.420948 191.886574 32.420948 180.998879 6.26650993 180.91459 6.26650993 180.91459 32.420948"></polygon>
            <g transform="translate(0.000000, 0.214145)">
                <path d="M220.465622,30.3354678 C222.422694,30.3354678 223.974128,29.6980365 225.122558,28.4218569 C226.270988,27.1456773 226.845203,25.5876582 226.845203,23.7438487 L226.845203,22.255631 L225.994416,22.255631 C222.989007,22.255631 220.53674,22.5453725 218.637616,23.1261725 C216.737176,23.7082895 215.787614,24.8488174 215.787614,26.5503902 C215.787614,27.8555439 216.240664,28.8116909 217.148082,29.421465 C218.055499,30.0312392 219.161785,30.3354678 220.465622,30.3354678 M219.700441,32.7179331 C217.65908,32.7179331 215.999652,32.1647902 214.724789,31.0585045 C213.44861,29.9522188 212.811178,28.4929752 212.811178,26.6781399 C212.866493,24.5511739 213.576359,23.0418841 214.936827,22.1489535 C216.297295,21.2560229 217.728882,20.70288 219.232903,20.4895249 C220.735608,20.2774868 222.422694,20.128665 224.292844,20.0443766 C225.625654,20.0154024 226.476441,20.0009154 226.845203,20.0009154 L226.845203,19.3634841 C226.845203,17.6619113 226.392152,16.3791467 225.484735,15.5151902 C224.577317,14.6499167 223.258993,14.2166215 221.529763,14.2166215 C220.394503,14.2166215 219.302705,14.4299766 218.254367,14.8553698 C217.204713,15.280763 216.326269,15.8483929 215.61772,16.5569426 L214.001752,14.6420147 C214.852539,13.7912283 215.957507,13.1050678 217.319293,12.579582 C218.679761,12.0554133 220.182465,11.793329 221.827407,11.793329 C224.093976,11.793329 225.952272,12.4175902 227.398346,13.6647956 C228.844419,14.9120011 229.567456,16.6991793 229.567456,19.0236963 L229.567456,27.7409644 C229.567456,29.5281426 229.680718,31.0163603 229.907244,32.2069344 L227.31274,32.2069344 C227.170503,31.3851222 227.086215,30.6910596 227.057241,30.1221127 C227.029584,29.5557997 227.015097,29.1738678 227.015097,28.9749997 L226.930808,28.9749997 C226.022073,30.2788365 224.994808,31.2283984 223.846378,31.8236854 C222.697948,32.4202895 221.316408,32.7179331 219.700441,32.7179331" id="Fill-2" fill="#000000"></path>
                <path d="M245.089303,29.740049 C247.328214,29.740049 249.164122,29.0170122 250.597025,27.5709388 C252.028612,26.1248653 252.743746,24.2692027 252.743746,22 C252.743746,19.873034 252.006223,18.0450286 250.532492,16.5146667 C249.058761,14.9829878 247.243926,14.2164898 245.089303,14.2164898 C242.8201,14.2164898 240.999997,14.9619156 239.625042,16.4501333 C238.24877,17.938351 237.561292,19.7887456 237.561292,22 C237.561292,24.2112544 238.242184,26.0550639 239.602653,27.5287946 C240.964438,29.0025252 242.792443,29.740049 245.089303,29.740049 M244.494016,42.4136054 C242.67918,42.4136054 240.927561,42.0593306 239.241793,41.350781 C237.554707,40.6409143 236.116536,39.6636952 234.924644,38.4164898 L237.008149,36.2052354 C237.831278,37.2535728 238.936247,38.1254313 240.325689,38.8208109 C241.713814,39.5148735 243.146718,39.8625633 244.621765,39.8625633 C247.313727,39.8625633 249.285287,39.1395265 250.532492,37.6934531 C251.779697,36.2473796 252.403959,34.3614259 252.403959,32.0369088 L252.403959,28.2939755 L252.31967,28.2939755 C251.582146,29.4845497 250.51142,30.4354286 249.107491,31.1439782 C247.704878,31.8525279 246.26539,32.2068027 244.791659,32.2068027 C241.700644,32.2068027 239.212819,31.2651429 237.326865,29.3791891 C235.442228,27.4932354 234.499251,25.0620408 234.499251,22.0856054 C234.499251,19.1934585 235.4633,16.7556789 237.391398,14.7696327 C239.319496,12.7862204 241.78625,11.7931973 244.791659,11.7931973 C246.294364,11.7931973 247.732536,12.1408871 249.107491,12.8349497 C250.482446,13.5303293 251.553172,14.5009633 252.31967,15.7481687 L252.403959,15.7481687 L252.403959,12.3028789 L255.296106,12.3028789 L255.296106,32.0369088 C255.296106,35.2398694 254.366299,37.7711565 252.510636,39.6281361 C250.653657,41.4837986 247.98145,42.4136054 244.494016,42.4136054" id="Fill-4" fill="#000000"></path>
                <mask id="mask-2" fill="white">
                    <use xlink:href="#path-1"></use>
                </mask>
                <g id="Clip-7"></g>
                <path d="M261.802514,32.2068027 L264.694661,32.2068027 L264.694661,12.3028789 L261.802514,12.3028789 L261.802514,32.2068027 Z M263.248588,6.68979592 C262.709932,6.68979592 262.234493,6.4922449 261.823586,6.09450884 C261.41268,5.6980898 261.207227,5.21606531 261.207227,4.64843537 C261.207227,4.08212245 261.41268,3.60009796 261.823586,3.2023619 C262.234493,2.80594286 262.709932,2.60707483 263.248588,2.60707483 C263.787244,2.60707483 264.262683,2.80594286 264.673589,3.2023619 C265.084495,3.60009796 265.289948,4.08212245 265.289948,4.64843537 C265.289948,5.21606531 265.084495,5.6980898 264.673589,6.09450884 C264.262683,6.4922449 263.787244,6.68979592 263.248588,6.68979592 L263.248588,6.68979592 Z" id="Fill-6" fill="#000000" mask="url(#mask-2)"></path>
                <path d="M280.515469,32.7174063 C277.367823,32.7174063 274.808878,31.7322852 272.838636,29.760726 C270.868394,27.7904838 269.883273,25.2894879 269.883273,22.2551042 C269.883273,19.2220376 270.868394,16.7197246 272.838636,14.7481654 C274.808878,12.7779233 277.367823,11.7928022 280.515469,11.7928022 C281.932568,11.7928022 283.314108,12.0904457 284.661406,12.6870498 C286.008704,13.2810199 287.092601,14.1318063 287.91573,15.238092 L285.661014,16.8540593 C285.17899,16.0888784 284.477025,15.4580321 283.556438,14.9615205 C282.634533,14.466326 281.634925,14.2174117 280.557613,14.2174117 C278.289727,14.2174117 276.45382,14.9760076 275.051208,16.4931995 C273.647278,18.0103913 272.945314,19.9305872 272.945314,22.2551042 C272.945314,24.5796212 273.639376,26.4932321 275.028819,27.9972539 C276.418261,29.4999586 278.246266,30.2506525 280.515469,30.2506525 C281.932568,30.2506525 283.066511,29.9806661 283.917297,29.4420103 C284.768084,28.9033546 285.434489,28.3080675 285.916514,27.6561491 L288.085624,29.2721165 C286.922707,30.6905328 285.667599,31.6190226 284.321619,32.0589029 C282.974321,32.4974661 281.706043,32.7174063 280.515469,32.7174063" id="Fill-8" fill="#000000" mask="url(#mask-2)"></path>
                <path d="M294.761927,29.5701551 L300.460615,29.5701551 C302.870737,29.5701551 304.855467,29.0881306 306.414803,28.1240816 C307.974139,27.1600327 308.753807,25.686302 308.753807,23.7002558 C308.753807,21.7445007 308.087401,20.2707701 306.75459,19.2777469 C305.42178,18.2860408 303.508169,17.7895293 301.013758,17.7895293 L294.761927,17.7895293 L294.761927,29.5701551 Z M294.761927,15.2806313 L300.929469,15.2806313 C302.657382,15.2806313 304.153502,14.8552381 305.415195,14.0044517 C306.676887,13.1536653 307.307733,11.8208544 307.307733,10.0073361 C307.307733,8.19250068 306.641328,6.8596898 305.308517,6.0089034 C303.975706,5.15811701 302.231989,4.73404082 300.078683,4.73404082 L294.761927,4.73404082 L294.761927,15.2806313 Z M291.699886,32.2068027 L291.699886,2.09607619 L300.67397,2.09607619 C303.394906,2.09607619 305.691766,2.69136327 307.563233,3.88325442 C309.434699,5.07382857 310.369774,7.04407075 310.369774,9.79398095 C310.369774,11.3822912 309.881165,12.7651483 308.902629,13.9412354 C307.92541,15.1173224 306.641328,15.8904054 305.054335,16.2591673 L305.054335,16.3434558 C307.066721,16.571298 308.703761,17.350966 309.965453,18.6824599 C311.227146,20.0152707 311.857992,21.7445007 311.857992,23.8714667 C311.857992,26.3948517 310.838629,28.4151401 308.795951,29.931015 C306.75459,31.4482068 304.033654,32.2068027 300.631826,32.2068027 L291.699886,32.2068027 Z" id="Fill-9" fill="#000000" mask="url(#mask-2)"></path>
                <path d="M326.658251,30.2505208 C328.897162,30.2505208 330.7199,29.4919249 332.122512,27.9747331 C333.526441,26.4588582 334.228406,24.5518324 334.228406,22.2549725 C334.228406,19.9581127 333.526441,18.0445018 332.122512,16.5141399 C330.7199,14.982461 328.897162,14.21728 326.658251,14.21728 C324.418022,14.21728 322.603187,14.982461 321.215062,16.5141399 C319.82562,18.0445018 319.13024,19.9581127 319.13024,22.2549725 C319.13024,24.5518324 319.832205,26.4588582 321.236134,27.9747331 C322.638746,29.4919249 324.446996,30.2505208 326.658251,30.2505208 M326.658251,32.7172746 C323.59621,32.7172746 321.064923,31.7255684 319.067024,29.7395222 C317.067807,27.7561099 316.068199,25.260382 316.068199,22.2549725 C316.068199,19.249563 317.067807,16.7551521 319.067024,14.7704229 C321.064923,12.7856936 323.59621,11.7926705 326.658251,11.7926705 C329.747949,11.7926705 332.293723,12.7856936 334.291622,14.7704229 C336.290839,16.7551521 337.290447,19.249563 337.290447,22.2549725 C337.290447,25.260382 336.290839,27.7561099 334.291622,29.7395222 C332.293723,31.7255684 329.747949,32.7172746 326.658251,32.7172746" id="Fill-10" fill="#000000" mask="url(#mask-2)"></path>
                <path d="M351.579707,30.2505208 C353.818619,30.2505208 355.641356,29.4919249 357.043968,27.9747331 C358.447898,26.4588582 359.149862,24.5518324 359.149862,22.2549725 C359.149862,19.9581127 358.447898,18.0445018 357.043968,16.5141399 C355.641356,14.982461 353.818619,14.21728 351.579707,14.21728 C349.339479,14.21728 347.524643,14.982461 346.136518,16.5141399 C344.747076,18.0445018 344.051696,19.9581127 344.051696,22.2549725 C344.051696,24.5518324 344.753661,26.4588582 346.15759,27.9747331 C347.560202,29.4919249 349.368453,30.2505208 351.579707,30.2505208 M351.579707,32.7172746 C348.517666,32.7172746 345.986379,31.7255684 343.98848,29.7395222 C341.989264,27.7561099 340.989656,25.260382 340.989656,22.2549725 C340.989656,19.249563 341.989264,16.7551521 343.98848,14.7704229 C345.986379,12.7856936 348.517666,11.7926705 351.579707,11.7926705 C354.669405,11.7926705 357.215179,12.7856936 359.213079,14.7704229 C361.212295,16.7551521 362.211903,19.249563 362.211903,22.2549725 C362.211903,25.260382 361.212295,27.7561099 359.213079,29.7395222 C357.215179,31.7255684 354.669405,32.7172746 351.579707,32.7172746" id="Fill-11" fill="#000000" mask="url(#mask-2)"></path>
                <polygon id="Fill-12" fill="#000000" mask="url(#mask-2)" points="367.441737 32.2068027 367.441737 0.0547156463 370.333884 0.0547156463 370.333884 21.2769633 370.461634 21.2769633 379.647756 12.3028789 383.816083 12.3028789 373.779174 21.4047129 384.836763 32.2068027 380.584148 32.2068027 370.461634 21.7445007 370.333884 21.7445007 370.333884 32.2068027"></polygon>
                <polygon id="Fill-13" fill="#000000" mask="url(#mask-2)" points="17.3166639 2.06354612 22.6874177 2.06354612 22.6874177 32.2071978 17.3166639 32.2071978 17.3166639 19.650855 5.36877823 19.650855 5.36877823 32.2071978 0.000658503403 32.2071978 0.000658503403 2.06354612 5.36877823 2.06354612 5.36877823 14.2814182 17.3166639 14.2814182"></polygon>
                <polygon id="Fill-14" fill="#000000" mask="url(#mask-2)" points="85.4305437 20.8759347 72.3934933 2.06380952 68.1132212 2.06380952 68.1132212 32.2074612 73.482658 32.2074612 73.482658 13.3031456 86.5829246 32.2074612 90.7999804 32.2074612 90.7999804 2.06380952 85.4305437 2.06380952"></polygon>
                <path d="M113.512816,27.2102106 C107.937927,27.2102106 103.416642,22.6902433 103.416642,17.1140365 C103.416642,11.5391467 107.937927,7.01786231 113.512816,7.01786231 C119.089023,7.01786231 123.60899,11.5391467 123.60899,17.1140365 C123.60899,22.6902433 119.089023,27.2102106 113.512816,27.2102106 M113.512816,1.64974259 C104.972027,1.64974259 98.0472054,8.57324735 98.0472054,17.1140365 C98.0472054,25.6561426 104.972027,32.5796473 113.512816,32.5796473 C122.054922,32.5796473 128.978427,25.6561426 128.978427,17.1140365 C128.978427,8.57324735 122.054922,1.64974259 113.512816,1.64974259" id="Fill-15" fill="#000000" mask="url(#mask-2)"></path>
                <path d="M141.595616,16.3114525 L141.595616,7.43219265 L147.574827,7.43219265 C150.025776,7.43219265 152.01314,9.42087293 152.01314,11.8718226 C152.01314,14.3227722 150.024459,16.3114525 147.57351,16.3114525 L141.595616,16.3114525 Z M150.594723,21.2173029 C154.553646,19.9556103 157.422087,16.2482362 157.422087,11.8718226 C157.422087,6.46287565 153.044356,2.07856 147.640677,2.06407293 L136.226179,2.06407293 L136.226179,32.2077246 L141.595616,32.2077246 L141.595616,18.7926933 L152.782272,32.2077246 L159.759774,32.2077246 L150.594723,21.2173029 Z" id="Fill-16" fill="#000000" mask="url(#mask-2)"></path>
                <path d="M45.4001219,27.2102106 C39.8239151,27.2102106 35.3039478,22.6902433 35.3039478,17.1140365 C35.3039478,11.5391467 39.8239151,7.01786231 45.4001219,7.01786231 C50.9763287,7.01786231 55.494979,11.5391467 55.494979,17.1140365 C55.494979,22.6902433 50.9763287,27.2102106 45.4001219,27.2102106 M45.4001219,1.64974259 C36.8593328,1.64974259 29.934511,8.57324735 29.934511,17.1140365 C29.934511,25.6561426 36.8593328,32.5796473 45.4001219,32.5796473 C53.940911,32.5796473 60.8657328,25.6561426 60.8657328,17.1140365 C60.8657328,8.57324735 53.940911,1.64974259 45.4001219,1.64974259" id="Fill-17" fill="#000000" mask="url(#mask-2)"></path>
            </g>
        </g>
        <g id="编组" transform="translate(392.000000, 1.000000)" fill="#000000">
            <polygon id="Fill-9" points="12.3696723 31.0428456 0.884043719 0.994362074 4.20256159 0.994362074 13.983633 27.0955295 14.0708741 27.0955295 23.8553009 0.994362074 27.1268428 0.994362074 15.6009491 31.0428456"></polygon>
            <path d="M30.0604931,31.0428456 L32.9528717,31.0428456 L32.9528717,11.1790403 L30.0604931,11.1790403 L30.0604931,31.0428456 Z M31.5100378,5.57780207 C30.969814,5.57780207 30.4933433,5.38026886 30.0839811,4.98520245 C29.6712635,4.59013604 29.4665824,4.10802109 29.4665824,3.54220564 C29.4665824,2.97639018 29.6712635,2.49427523 30.0839811,2.09920882 C30.4933433,1.70079439 30.969814,1.50326118 31.5100378,1.50326118 C32.0469062,1.50326118 32.5233769,1.70079439 32.9360945,2.09920882 C33.3454567,2.49427523 33.5501378,2.97639018 33.5501378,3.54220564 C33.5501378,4.10802109 33.3454567,4.59013604 32.9360945,4.98520245 C32.5233769,5.38026886 32.0469062,5.57780207 31.5100378,5.57780207 L31.5100378,5.57780207 Z" id="Fill-11"></path>
            <path d="M41.2052103,19.5845804 L54.7745594,19.5845804 C54.6906737,17.6594687 54.073275,16.0959431 52.9223633,14.8940038 C51.7748071,13.6920644 50.1944007,13.0927688 48.1811442,13.0927688 C46.3088156,13.0927688 44.7149875,13.7255446 43.3963045,15.0011404 C42.0776214,16.2733882 41.3461382,17.8000855 41.2052103,19.5845804 M48.4361567,31.5537535 C45.4867358,31.5537535 43.0339183,30.5627395 41.077704,28.5807114 C39.1214897,26.6020313 38.1450603,24.1111041 38.1450603,21.1112777 C38.1450603,18.1415836 39.1013572,15.6573524 41.0139509,13.6619322 C42.9299,11.6698601 45.3189645,10.67215 48.1811442,10.67215 C51.1607639,10.67215 53.4894306,11.5895076 55.1772107,13.4309188 C56.8649907,15.2689821 57.7105585,17.6326845 57.7105585,20.5186781 C57.7105585,21.0844936 57.6937814,21.5364763 57.6669379,21.8746264 L41.1615897,21.8746264 C41.2219874,24.0809719 41.9903803,25.8386826 43.4835456,27.1377146 C44.97,28.4400945 46.6208704,29.0896105 48.4361567,29.0896105 C49.8253037,29.0896105 51.0869445,28.7581565 52.221079,28.0952484 C53.3552135,27.4289923 54.2209138,26.6154234 54.8181799,25.6511935 L56.9857861,27.3486398 C55.7375671,28.9356015 54.3853298,30.0304042 52.9223633,30.6397439 C51.4661078,31.2457356 49.9662317,31.5537535 48.4361567,31.5537535" id="Fill-13"></path>
            <polygon id="Fill-14" points="66.4266172 31.0428456 60.131835 11.1790403 63.238961 11.1790403 68.0439333 27.3064548 68.1311744 27.3064548 73.4864368 11.1790403 76.2949297 11.1790403 81.7374332 27.3064548 81.8246743 27.3064548 86.5893815 11.1790403 89.6528868 11.1790403 83.3581047 31.0428456 80.2073582 31.0428456 74.8890055 14.9589554 74.8084752 14.9589554 69.5740082 31.0428456"></polygon>
        </g>
        <g id="编组-22" transform="translate(491.000000, 2.000000)" fill="#000000">
            <polygon id="Fill-13" points="7.31465578 30.1109899 7.31465578 3.78534095 1.87146667 8.4212049 1.95754524e-12 6.29555592 7.65444354 0.000263401361 10.3766966 0.000263401361 10.3766966 30.1109899"></polygon>
            <path d="M21.1786547,20.1594231 L31.7687064,20.1594231 L31.7687064,3.4452898 L31.683101,3.4452898 L21.1786547,20.1594231 Z M31.7687064,30.1107265 L31.7687064,22.838215 L17.9888642,22.838215 L17.9888642,19.8617796 L30.7480261,-2.09610107e-13 L34.7451418,-2.09610107e-13 L34.7451418,20.1594231 L39.1676506,20.1594231 L39.1676506,22.838215 L34.7451418,22.838215 L34.7451418,30.1107265 L31.7687064,30.1107265 Z" id="Fill-14"></path>
        </g>
    </g>
</svg>